<?xml version="1.0" encoding="utf-8"?>
<!-- Generator: Adobe Illustrator 24.1.1, SVG Export Plug-In . SVG Version: 6.00 Build 0)  -->
<svg version="1.1" id="Layer_1" xmlns="http://www.w3.org/2000/svg" xmlns:xlink="http://www.w3.org/1999/xlink" x="0px" y="0px"
	 viewBox="0 0 800 800" style="enable-background:new 0 0 800 800;" xml:space="preserve">
<style type="text/css">
	.st0{fill-rule:evenodd;clip-rule:evenodd;fill:#7C7C7B;}
</style>
<g id="Page-1">
	<g id="about-white" transform="translate(42.666667, 42.666667)">
		<path id="Shape" class="st0" d="M357.3,24C173.2,24,24,173.2,24,357.3c0,184.1,149.2,333.3,333.3,333.3
			c184.1,0,333.3-149.2,333.3-333.3C690.7,173.2,541.4,24,357.3,24z M357.3,624c-147,0-266.7-119.6-266.7-266.7
			S210.3,90.7,357.3,90.7c147,0,266.7,119.6,266.7,266.7S504.4,624,357.3,624z M399.1,224c0,24.2-17.6,41.7-41.4,41.7
			c-24.8,0-41.9-17.5-41.9-42.1c0-23.7,17.6-41.2,41.9-41.2C381.5,182.3,399.1,199.9,399.1,224z M324.1,324h66.7v200h-66.7V324z"/>
	</g>
</g>
</svg>
