<?xml version="1.0" encoding="utf-8"?>
<!-- Generator: Adobe Illustrator 24.1.1, SVG Export Plug-In . SVG Version: 6.00 Build 0)  -->
<svg version="1.1" id="Capa_1" xmlns="http://www.w3.org/2000/svg" xmlns:xlink="http://www.w3.org/1999/xlink" x="0px" y="0px"
	 viewBox="0 0 800 800" style="enable-background:new 0 0 800 800;" xml:space="preserve">
<style type="text/css">
	.st0{fill:#FFFFFF;}
</style>
<path class="st0" d="M785.2,292.3C785.2,292.3,785.2,292.3,785.2,292.3C737.2,120.2,578.8,0,400,0c-69.2,0-137.5,18.1-197.6,52.2
	l0,0C77.6,123.3,0,256.6,0,400c0,128.9,62.7,250.6,167.7,325.6c9.9,7.1,23.7,4.8,30.8-5.1c7.1-9.9,4.8-23.7-5.1-30.8
	C100,622.9,44.2,514.6,44.2,400c0-120.2,61.2-232.3,161.2-297.8l60.9,107.2C204.6,252.8,167.1,324,167.1,400
	c0,51,16.2,99.5,46.9,140.1c25.2,33.3,59.3,59.6,97.8,75.4l-42.3,139.8c-0.2,0.7-0.4,1.4-0.5,2.1c-0.1,0.5-0.2,1-0.2,1.5
	c0,0.2-0.1,0.4-0.1,0.6c-0.1,0.6-0.1,1.2-0.1,1.8c0,0.1,0,0.2,0,0.3c0,0.6,0,1.2,0.1,1.8c0,0.1,0,0.2,0,0.3c0.1,0.6,0.2,1.1,0.3,1.7
	c0,0.1,0,0.3,0.1,0.4c0.1,0.5,0.2,1,0.4,1.5c0.1,0.2,0.1,0.4,0.2,0.6c0.1,0.4,0.3,0.8,0.4,1.3c0.1,0.3,0.2,0.5,0.3,0.8
	c0.2,0.4,0.4,0.8,0.5,1.1c0.1,0.3,0.2,0.5,0.4,0.8c0.1,0.3,0.3,0.5,0.4,0.7c0.2,0.4,0.4,0.7,0.7,1.1c0.1,0.2,0.3,0.4,0.5,0.6
	c0.3,0.4,0.5,0.7,0.8,1.1c0.1,0.2,0.3,0.3,0.4,0.5c0.3,0.4,0.7,0.8,1,1.1c0.1,0.1,0.2,0.2,0.3,0.3c0.4,0.4,0.8,0.8,1.3,1.1
	c0.1,0.1,0.2,0.2,0.3,0.2c0.5,0.4,0.9,0.7,1.4,1.1c0.1,0.1,0.3,0.2,0.4,0.2c0.5,0.3,0.9,0.6,1.4,0.9c0.3,0.1,0.6,0.3,0.8,0.4
	c0.4,0.2,0.7,0.4,1.1,0.5c0.7,0.3,1.4,0.5,2.1,0.8C321.7,794.2,360.7,800,400,800c126.5,0,242.9-58,319.3-159.1
	C772.1,571,800,487.7,800,400C800,363.7,795,327.5,785.2,292.3z M211.3,400c0-67.6,36.6-130.4,95.6-164c0.3-0.2,0.6-0.4,1-0.6
	c0.3-0.2,0.6-0.4,0.9-0.6c0.3-0.2,0.6-0.5,0.9-0.7c0.3-0.2,0.5-0.4,0.8-0.6c0.3-0.3,0.6-0.5,0.8-0.8c0.2-0.2,0.5-0.5,0.7-0.7
	c0.3-0.3,0.5-0.6,0.8-0.9c0.2-0.2,0.4-0.5,0.6-0.7c0.2-0.3,0.4-0.6,0.6-0.9c0.2-0.3,0.4-0.5,0.6-0.8c0.2-0.3,0.3-0.6,0.5-0.8
	c0.2-0.3,0.4-0.7,0.6-1c0.1-0.2,0.2-0.5,0.3-0.7c0.2-0.4,0.4-0.8,0.5-1.2c0.1-0.2,0.1-0.3,0.2-0.5c0.2-0.5,0.4-1,0.5-1.5
	c0-0.1,0-0.2,0.1-0.2c1.4-5.4,0.8-11.3-2.1-16.6L243.9,80.3c48.4-23.7,102-36.1,156.1-36.1c151.6,0,286.7,97.2,336,238.9
	l-118.8,33.2C583,227.4,496.6,167.1,400,167.1c-12.2,0-22.1,9.9-22.1,22.1s9.9,22.1,22.1,22.1c84.2,0,158.9,56.7,181.6,137.9
	c4.7,16.9,7.1,34,7.1,50.8c0,41.1-13.2,80.4-38.2,113.5c0,0,0,0,0,0c-36.1,47.8-91,75.2-150.5,75.2c-18.4,0-36.8-2.7-54.6-8.1
	C266.4,556.8,211.3,482.5,211.3,400z M400,755.8c-27.6,0-54.9-3.2-81.6-9.5l34.4-113.9l1.2-4.1c15.1,3.1,30.5,4.6,46,4.6
	c66.1,0,127.6-27.4,171.7-75.8l98.5,74.3C602.4,710.7,505.1,755.8,400,755.8z M696.8,596.2l-98.5-74.3
	c22.7-36.7,34.6-78.4,34.6-121.9c0-13.6-1.3-27.4-3.8-41.1l118.8-33.2c5.2,24.5,7.9,49.4,7.9,74.3
	C755.8,470.6,735.5,538,696.8,596.2z"/>
</svg>
