<?xml version="1.0" encoding="utf-8"?>
<!-- Generator: Adobe Illustrator 24.1.1, SVG Export Plug-In . SVG Version: 6.00 Build 0)  -->
<svg version="1.1" id="Layer_1" xmlns="http://www.w3.org/2000/svg" xmlns:xlink="http://www.w3.org/1999/xlink" x="0px" y="0px"
	 viewBox="0 0 800 800" style="enable-background:new 0 0 800 800;" xml:space="preserve">
<style type="text/css">
	.st0{fill:#7C7C7B;}
</style>
<g>
	<g>
		<path class="st0" d="M697.3,253.3c20,0,36-16,36-36v-88c0-20-16-36-36-36h-244V40c0-22.7-17.3-40-40-40s-40,17.3-40,40v53.3H160
			c-2.7,0-6.7,1.3-8,2.7l-80,66.7c-4,2.7-5.3,6.7-5.3,10.7s1.3,8,5.3,10.7l80,66.7c1.3,1.3,5.3,2.7,8,2.7h213.3v80H102.7
			c-20,0-36,16-36,36v89.3c0,18.7,16,34.7,36,34.7h270.7V720c-37.3,0-66.7,29.3-66.7,66.7c0,8,5.3,13.3,13.3,13.3h186.7
			c8,0,13.3-5.3,13.3-13.3c0-37.3-29.3-66.7-66.7-66.7V493.3H640c2.7,0,6.7-1.3,8-2.7l80-66.7c2.7-2.7,5.3-6.7,5.3-10.7
			s-1.3-8-5.3-10.7L648,336c-1.3-1.3-5.3-2.7-8-2.7H453.3v-80L697.3,253.3L697.3,253.3z M520,160h120c8,0,13.3,5.3,13.3,13.3
			s-5.3,13.3-13.3,13.3H520c-8,0-13.3-5.3-13.3-13.3S512,160,520,160z M306.7,186.7H173.3c-8,0-13.3-5.3-13.3-13.3
			s5.3-13.3,13.3-13.3h133.3c8,0,13.3,5.3,13.3,13.3C320,181.3,314.7,186.7,306.7,186.7z M506.7,400h120c8,0,13.3,5.3,13.3,13.3
			s-5.3,13.3-13.3,13.3h-120c-8,0-13.3-5.3-13.3-13.3S498.7,400,506.7,400z M400,40c0-8,5.3-13.3,13.3-13.3S426.7,32,426.7,40v53.3
			H400V40z M293.3,426.7H160c-8,0-13.3-5.3-13.3-13.3s5.3-13.3,13.3-13.3h133.3c8,0,13.3,5.3,13.3,13.3S301.3,426.7,293.3,426.7z
			 M426.7,720H400V493.3h26.7V720z M426.7,426.7h-53.3c-8,0-13.3-5.3-13.3-13.3s5.3-13.3,13.3-13.3h53.3c8,0,13.3,5.3,13.3,13.3
			C440,421.3,434.7,426.7,426.7,426.7z M400,333.3v-80h26.7v80H400z M440,186.7h-53.3c-8,0-13.3-5.3-13.3-13.3s5.3-13.3,13.3-13.3
			H440c8,0,13.3,5.3,13.3,13.3C453.3,181.3,448,186.7,440,186.7z"/>
	</g>
</g>
</svg>
