<?xml version="1.0" encoding="utf-8"?>
<!-- Generator: Adobe Illustrator 24.1.1, SVG Export Plug-In . SVG Version: 6.00 Build 0)  -->
<svg version="1.1" id="Layer_1" xmlns="http://www.w3.org/2000/svg" xmlns:xlink="http://www.w3.org/1999/xlink" x="0px" y="0px"
	 viewBox="0 0 800 800" style="enable-background:new 0 0 800 800;" xml:space="preserve">
<style type="text/css">
	.st0{opacity:0.5;fill:#898989;}
	.st1{opacity:0.5;fill:#7C7C7B;}
	.st2{opacity:0.5;}
	.st3{fill:#7C7C7B;}
	.st4{opacity:0.5;fill:#C1C1C1;}
	.st5{fill:#898989;}
	.st6{fill:#C1C1C1;}
	.st7{opacity:0.5;fill:#E0E0E2;}
</style>
<polygon class="st0" points="17.3,579.1 17.3,552.7 400,331.7 782.7,552.7 782.7,579.1 400,800 "/>
<path id="SVGCleanerId_0" class="st1" d="M597.3,526.5L476.5,40.6h0c-1.5-10.1-8.8-19.9-22.1-27.6c-29.9-17.3-78.8-17.3-108.7,0
	c-13.3,7.7-20.7,17.5-22.1,27.6h0L202.7,526.5c-14.2,37.6,3.9,78.6,54.3,107.7c78.6,45.4,207.3,45.4,286,0
	C593.4,605.1,611.5,564.1,597.3,526.5z"/>
<g class="st2">
	<path id="SVGCleanerId_0_1_" class="st3" d="M597.3,526.5L476.5,40.6h0c-1.5-10.1-8.8-19.9-22.1-27.6c-29.9-17.3-78.8-17.3-108.7,0
		c-13.3,7.7-20.7,17.5-22.1,27.6h0L202.7,526.5c-14.2,37.6,3.9,78.6,54.3,107.7c78.6,45.4,207.3,45.4,286,0
		C593.4,605.1,611.5,564.1,597.3,526.5z"/>
</g>
<polygon class="st1" points="400,773.6 400,800 17.3,579.1 17.3,552.7 "/>
<polygon class="st4" points="400,773.6 400,800 782.7,579.1 782.7,552.7 "/>
<path class="st5" d="M345.7,75.7c-29.9-17.3-29.9-45.5,0-62.8s78.8-17.3,108.7,0s29.9,45.5,0,62.8S375.5,93,345.7,75.7z"/>
<path class="st6" d="M367.4,63.1c-17.9-10.4-17.9-27.3,0-37.7c17.9-10.4,47.3-10.4,65.2,0c17.9,10.4,17.9,27.3,0,37.7
	C414.7,73.5,385.3,73.5,367.4,63.1z"/>
<path class="st7" d="M567.1,405.3L526,239.9c-5.1,4.3-10.9,8.3-17.5,12.1c-59.7,34.5-157.4,34.5-217,0c-6.6-3.8-12.4-7.9-17.5-12.1
	l0,0l-41.1,165.3c7.9,8.7,17.5,16.9,28.8,24.4c76.1,50.6,200.6,50.6,276.7,0C549.6,422.2,559.2,414,567.1,405.3z"/>
</svg>
